<svg xmlns="http://www.w3.org/2000/svg" viewBox="0 0 400 300"><g id="_68_piggy_bank" data-name="#68_piggy_bank"><path d="M340.28,231.71H47.72a.5.5,0,0,1,0-1H340.28a.5.5,0,0,1,0,1Z" fill="#d1d3d4"/><path d="M171,194a4.64,4.64,0,0,1-2.87-.94c-2.23-1.75-2.71-5.45-1.05-8.09-1.66,0-6.42.15-7.73,3.45a.5.5,0,0,1-.65.28.51.51,0,0,1-.28-.65c1.08-2.71,4.38-4.23,8.84-4.07l.55,0a9.77,9.77,0,0,1,6.63-3,21,21,0,0,1,8.22,1.45.5.5,0,0,1-.33.95,19.94,19.94,0,0,0-7.82-1.41,9,9,0,0,0-5.4,2.14,9.48,9.48,0,0,1,3.91,1.3,5.25,5.25,0,0,1,2.53,5.4,4.11,4.11,0,0,1-2.79,2.88A5.17,5.17,0,0,1,171,194Zm-2.74-9a5,5,0,0,0-.33.47c-1.41,2.22-1,5.32.82,6.77a4,4,0,0,0,3.68.49,3.11,3.11,0,0,0,2.14-2.17,4.32,4.32,0,0,0-2.09-4.33A9.36,9.36,0,0,0,168.24,185Z" fill="#231f20"/><path d="M299.24,198.25S288.66,220.7,286.17,235a5.09,5.09,0,0,1-5,4.22h-3a5.1,5.1,0,0,1-5.06-4.44L269,203" fill="#231f20"/><path d="M245.64,200.3s-10.58,22.45-13.06,36.77a5.1,5.1,0,0,1-5,4.22h-3a5.11,5.11,0,0,1-5.06-4.45L215.35,205" fill="#231f20"/><path d="M195.79,215c-20.53-15.35-23.68-42.67-14.29-60.55,8.06-15.37,25.14-23,40.31-29.86,16.3-7.33,33.92-12.28,51.92-11.92a76.87,76.87,0,0,1,33.84,8.16c4.95,2.56,9.11,6.88,14.41,8.46a26.61,26.61,0,0,0,19.34-1.1l9.94,14.87s-14.77,39-52.83,59.23S216.32,230.37,195.79,215Z" fill="#fff"/><path d="M226.17,223.6c-12.65,0-23.31-2.68-30.68-8.18-20.92-15.65-23.77-43.39-14.44-61.18,8.14-15.5,25.32-23.23,40.49-30.05,18.44-8.29,36-12.31,52.2-12a77.64,77.64,0,0,1,34.06,8.22,50,50,0,0,1,5.68,3.61c2.71,1.91,5.52,3.88,8.64,4.81a26.15,26.15,0,0,0,19-1.07.49.49,0,0,1,.62.17l9.94,14.87a.54.54,0,0,1,.06.46c-.15.39-15.27,39.38-53.06,59.49C273,216.41,246.92,223.6,226.17,223.6Zm-30.08-9c19.14,14.31,61.13,9.07,102.11-12.75,35.92-19.12,51.17-55.44,52.5-58.73l-9.56-14.3a27.1,27.1,0,0,1-19.3.95c-3.28-1-6.16-3-8.94-4.95a49.83,49.83,0,0,0-5.56-3.55,76.65,76.65,0,0,0-33.62-8.1c-16.1-.34-33.47,3.68-51.7,11.88-15.09,6.79-32.11,14.44-40.08,29.63-9.14,17.42-6.35,44.59,14.15,59.92Z" fill="#231f20"/><path d="M285.68,203s-16.07,25.48-19.42,37.88a5.12,5.12,0,0,1-5,3.74h-4a5.1,5.1,0,0,1-5.1-5.11V209" fill="#fff"/><path d="M261.3,245.1h-4a5.61,5.61,0,0,1-5.6-5.61V209a.5.5,0,0,1,.5-.5.5.5,0,0,1,.5.5v30.52a4.61,4.61,0,0,0,4.6,4.61h4a4.63,4.63,0,0,0,4.48-3.37c3.33-12.33,19.32-37.76,19.48-38a.5.5,0,0,1,.84.54c-.16.25-16.07,25.55-19.36,37.74A5.61,5.61,0,0,1,261.3,245.1Z" fill="#231f20"/><path d="M224.52,215.28s-5.65,15.47-8.49,25.61a5.1,5.1,0,0,1-4.91,3.71h-4.55a5.11,5.11,0,0,1-5-4.09c-1.85-9.15-5.72-31.44-2.27-43.52" fill="#fff"/><path d="M211.12,245.1h-4.55a5.63,5.63,0,0,1-5.49-4.49c-1.84-9.09-5.75-31.56-2.26-43.76a.49.49,0,0,1,.61-.34.5.5,0,0,1,.35.62c-3.43,12,.45,34.26,2.28,43.28a4.61,4.61,0,0,0,4.51,3.69h4.55a4.61,4.61,0,0,0,4.42-3.35c2.82-10,8.45-25.49,8.51-25.65a.5.5,0,0,1,.64-.29.5.5,0,0,1,.3.64c-.06.15-5.68,15.57-8.48,25.57A5.62,5.62,0,0,1,211.12,245.1Z" fill="#231f20"/><path d="M333.51,172.39s-33.64,11.36-44.36-14.18" fill="#fff"/><path d="M317.14,175.35c-10.32,0-22.69-3.21-28.45-16.94a.5.5,0,1,1,.92-.39c10.41,24.81,43.41,14,43.74,13.9a.49.49,0,0,1,.63.31.5.5,0,0,1-.31.64A58.61,58.61,0,0,1,317.14,175.35Z" fill="#231f20"/><path d="M282.9,119.33c-2.54-1.89-4.63-4.31-7.08-6.3s-5.47-3.6-8.63-3.38c-4.51.33-7.87,4.16-10.7,7.7a80.28,80.28,0,0,0-7.84,11c-2.13,3.84-3.65,8.28-2.85,12.6.72,3.9,4.35,7.74,8.18,6.72a9.77,9.77,0,0,0,3.92-2.57,120.51,120.51,0,0,0,15.68-17.71" fill="#fff"/><path d="M252.71,148.38a6,6,0,0,1-3.26-1,9.8,9.8,0,0,1-4.14-6.29c-.71-3.83.27-8.18,2.91-12.94A81.78,81.78,0,0,1,256.1,117c3-3.81,6.4-7.55,11.06-7.88,2.84-.2,5.88,1,9,3.48,1.11.9,2.15,1.89,3.16,2.85a41.18,41.18,0,0,0,3.91,3.43.5.5,0,0,1-.6.81,45,45,0,0,1-4-3.51c-1-1-2-1.93-3.1-2.8-2.89-2.36-5.69-3.46-8.27-3.27-4.26.31-7.45,3.88-10.35,7.51a81.51,81.51,0,0,0-7.79,11c-2.52,4.54-3.46,8.67-2.8,12.27a8.85,8.85,0,0,0,3.69,5.63,4.87,4.87,0,0,0,3.87.69,9.29,9.29,0,0,0,3.71-2.45,120,120,0,0,0,15.61-17.63.5.5,0,1,1,.81.59,122,122,0,0,1-15.74,17.78,10.15,10.15,0,0,1-4.13,2.68A5.56,5.56,0,0,1,252.71,148.38Z" fill="#231f20"/><path d="M311.33,132.67s-5.47,18.29-18.4,5.68" fill="#fff"/><path d="M301.44,143.29c-2.77,0-5.74-1.54-8.86-4.58a.5.5,0,0,1,0-.71.49.49,0,0,1,.7,0c3.56,3.47,6.83,4.85,9.74,4.1,5.32-1.38,7.81-9.48,7.83-9.56a.5.5,0,0,1,.62-.33.49.49,0,0,1,.34.62c-.11.35-2.67,8.71-8.54,10.23A7.07,7.07,0,0,1,301.44,143.29Z" fill="#231f20"/><path d="M290.41,152.22s2.64,8.2-7.51,9.14" fill="#fff"/><path d="M282.9,161.86a.5.5,0,0,1,0-1c3.12-.29,5.29-1.32,6.43-3a7.06,7.06,0,0,0,.64-5.46.5.5,0,0,1,1-.3,8,8,0,0,1-.76,6.3c-1.32,2-3.73,3.17-7.18,3.49Z" fill="#231f20"/><path d="M349.34,127.25a10.05,10.05,0,0,1,5.88,6.71,10.53,10.53,0,0,1-1.74,8.79c-1.91,2.58-5.43,4.23-8.44,3.09a7.91,7.91,0,0,1-2.3-1.45,12.17,12.17,0,0,1-4.12-8.15C338.09,129.61,342.58,124.55,349.34,127.25Z" fill="#fff"/><path d="M347.1,146.71a6.19,6.19,0,0,1-2.23-.41,8.08,8.08,0,0,1-2.46-1.53,12.64,12.64,0,0,1-4.29-8.49c-.3-3.79,1-7.12,3.4-8.91,2.15-1.58,5-1.79,8-.59h0a10.63,10.63,0,0,1,6.18,7.06,11,11,0,0,1-1.83,9.21A8.9,8.9,0,0,1,347.1,146.71ZM345.78,127a6.05,6.05,0,0,0-3.66,1.17c-2.15,1.59-3.28,4.59-3,8a11.62,11.62,0,0,0,3.95,7.82,7.25,7.25,0,0,0,2.15,1.35c2.92,1.11,6.16-.63,7.86-2.92a10.09,10.09,0,0,0,1.66-8.36,9.59,9.59,0,0,0-5.58-6.38h0A9.28,9.28,0,0,0,345.78,127Z" fill="#231f20"/><path d="M347.65,131.74a12.25,12.25,0,0,0,.92,2.82c.39.92.82,1.83,1.28,2.72s1.71,1.89,2.57.78a2.59,2.59,0,0,0,.32-2,12.68,12.68,0,0,0-1.13-3.16c-.45-1-1.22-2.93-2.34-3.27a1.32,1.32,0,0,0-1.3.33,1.19,1.19,0,0,0-.29.51A2.6,2.6,0,0,0,347.65,131.74Z" fill="#231f20"/><path d="M342.17,133.05a2.07,2.07,0,0,1,1.63-.71c1.21.09,1.93,2.14,2.33,3.07a22.91,22.91,0,0,1,1.4,4.44,1.59,1.59,0,0,1-.23,1.37,1.42,1.42,0,0,1-1.73.44,3,3,0,0,1-.91-.74,13.65,13.65,0,0,1-2.68-5.66,3.44,3.44,0,0,1-.11-1.62A1.44,1.44,0,0,1,342.17,133.05Z" fill="#231f20"/><path d="M234.47,122.49s-37.68,11.87-52,37.21l3.23,4.13s19.56-27.07,52.79-36.62Z" fill="#231f20"/><path d="M96.86,87c.91-5.74,1.19-11.54,5.8-16a9.52,9.52,0,0,1,8.75-2.47c.66.15,1.58,1.09,2.12,1.13s1.38-.57,1.89-.53c1.74.15,2.79,0,4.41,1.15,5.83,4,9.63,10.41,11.75,17.15,3.72,11.81,3.08,23.45-.18,35.25a40.5,40.5,0,0,1-17,23.49c-8.49,5.54-20.05,2.79-28.28-2.51-10-6.46-16.38-19-13.78-30.68.79-3.54,2.61-7.17,5.91-8.66,2.41-1.1,5.21-.87,7.77-1.58,4.39-1.21,7.64-5.11,9.26-9.37A31.63,31.63,0,0,0,96.86,87Z" fill="#fff"/><path d="M103.65,149.6c-6.46,0-13-2.55-17.75-5.61-10.78-7-16.52-19.77-14-31.17.57-2.57,2.13-7.16,6.16-9a15.76,15.76,0,0,1,4.66-1.06,21.12,21.12,0,0,0,3.18-.54c3.84-1.06,7.19-4.46,8.95-9.09a31.43,31.43,0,0,0,1.53-6.24h0c.11-.72.21-1.44.32-2.15.72-5,1.46-10.1,5.61-14.14a9.92,9.92,0,0,1,9.17-2.6,4.16,4.16,0,0,1,1.24.66,2.93,2.93,0,0,0,.82.46,1.93,1.93,0,0,0,.84-.25,2.23,2.23,0,0,1,1-.28l.74.06a6.65,6.65,0,0,1,3.89,1.17c6.8,4.65,10.24,12,11.93,17.39,3.45,11,3.39,22.58-.18,35.51a40.82,40.82,0,0,1-17.16,23.75A19.82,19.82,0,0,1,103.65,149.6ZM97.31,87.05a32.39,32.39,0,0,1-1.58,6.42c-1.86,4.91-5.43,8.51-9.56,9.65a22.48,22.48,0,0,1-3.31.57,14.88,14.88,0,0,0-4.39,1c-3.67,1.66-5.11,5.94-5.65,8.34-2.43,10.87,3.28,23.57,13.58,30.21,7.34,4.73,19,8.23,27.78,2.51A40,40,0,0,0,131,122.5c3.52-12.75,3.58-24.2.19-35-1.65-5.23-5-12.42-11.58-16.91a5.78,5.78,0,0,0-3.43-1l-.76-.06a2.41,2.41,0,0,0-.6.21,2.86,2.86,0,0,1-1.28.33,3,3,0,0,1-1.27-.62,3.41,3.41,0,0,0-.92-.52A9,9,0,0,0,103,71.27c-3.92,3.82-4.61,8.58-5.34,13.62-.1.72-.21,1.44-.32,2.16Z" fill="#231f20"/><path d="M123.31,97.71s17.79,3.56,22.24-.58a56,56,0,0,0,8.3-10.67s5.78,6.82,5.19,7.71-12.25,21.46-25.3,19.09-18.6,0-18.6,0Z" fill="#0090ff"/><circle cx="183.61" cy="98.34" r="42.93" fill="#fff"/><path d="M183.61,141.73A43.39,43.39,0,1,1,227,98.34,43.45,43.45,0,0,1,183.61,141.73Zm0-85.87a42.48,42.48,0,1,0,42.48,42.48A42.53,42.53,0,0,0,183.61,55.86Z" fill="#231f20"/><path d="M183.61,132.85a34.51,34.51,0,1,1,34.51-34.51A34.55,34.55,0,0,1,183.61,132.85Zm0-68a33.51,33.51,0,1,0,33.51,33.51A33.54,33.54,0,0,0,183.61,64.83Z" fill="#d1d3d4"/><path d="M159.64,109.47a6.34,6.34,0,0,0,2.45-3.32,28.14,28.14,0,0,1,1.52-3.92,1.66,1.66,0,0,1,.68-.73.65.65,0,0,1,.87.27,1.05,1.05,0,0,1,0,.5c-.17,1.08-.4,2.18-.48,3.26a11.65,11.65,0,0,0,1.69-2.55l2-3a2.64,2.64,0,0,1,.6-.69.81.81,0,0,1,.86-.07,1,1,0,0,1,.35.91,4.91,4.91,0,0,0-.07,1,2.86,2.86,0,0,1,.72-.63,1,1,0,0,1,.91,0c.52.33.37,1.12.1,1.68a.59.59,0,0,1,.85-.1.94.94,0,0,1,.28.88,3,3,0,0,1-.35.9c0-.3.51-.32.68-.07a1,1,0,0,1,0,.85c-.62,1.92-2.09,3.29-3.45,4.71-1.61,1.67-3.28,3.29-5,4.83" fill="#fff"/><path d="M164.88,114.66a.43.43,0,0,1-.34-.16.46.46,0,0,1,0-.64c1.72-1.53,3.39-3.15,5-4.81l.43-.45a10.86,10.86,0,0,0,2.91-4.08.88.88,0,0,0,.06-.34.47.47,0,0,1-.48.13.46.46,0,0,1-.31-.5.75.75,0,0,1,.16-.35,2,2,0,0,0,.2-.55.52.52,0,0,0-.12-.46.17.17,0,0,0-.17,0,.46.46,0,0,1-.8-.44c.2-.42.3-1,.07-1.1a.51.51,0,0,0-.46,0,2.4,2.4,0,0,0-.59.53.46.46,0,0,1-.47.13.47.47,0,0,1-.32-.37,3,3,0,0,1,0-.8c0-.1,0-.21,0-.31a.58.58,0,0,0-.13-.49.38.38,0,0,0-.36.06,2,2,0,0,0-.48.56l-2,3a8.31,8.31,0,0,0-.47.81,6.19,6.19,0,0,1-1.32,1.84.48.48,0,0,1-.5,0,.47.47,0,0,1-.24-.44c.06-.77.19-1.55.32-2.3.06-.33.12-.67.17-1a.78.78,0,0,0,0-.26.25.25,0,0,0-.25,0,1.2,1.2,0,0,0-.47.54,14.71,14.71,0,0,0-1,2.57c-.14.43-.29.86-.45,1.28a6.54,6.54,0,0,1-2.64,3.55.46.46,0,1,1-.46-.79,5.71,5.71,0,0,0,2.25-3.08c.16-.42.3-.83.44-1.25a14.89,14.89,0,0,1,1.11-2.73,2,2,0,0,1,.89-.92,1.2,1.2,0,0,1,.93,0,1,1,0,0,1,.55.53,1.37,1.37,0,0,1,0,.74c-.05.34-.11.67-.17,1,0,.16,0,.31-.07.46l.11-.2a9.81,9.81,0,0,1,.51-.88l2-3a2.81,2.81,0,0,1,.72-.8,1.25,1.25,0,0,1,1.36-.09,1.38,1.38,0,0,1,.57,1.27,1.38,1.38,0,0,1,1.35,0,1.35,1.35,0,0,1,.54,1.4,1.11,1.11,0,0,1,.45.22,1.38,1.38,0,0,1,.44,1.3,1.55,1.55,0,0,1-.05.23,1,1,0,0,1,.31.26,1.46,1.46,0,0,1,.08,1.26,11.67,11.67,0,0,1-3.12,4.44l-.43.44c-1.61,1.68-3.31,3.32-5,4.86A.44.44,0,0,1,164.88,114.66Z" fill="#231f20"/><path d="M87.09,194.08l-6.3,13.73-25-12.61s-8.75,13.65-7,13.87,7.83-1.93,7.83-1.93,30.94,20,34.25,16.6,15.46-31.35,15.46-31.35" fill="#fff"/><path d="M89.71,224.59c-2.12,0-6.7-1.51-17.34-7.48C65,213,57.9,208.44,56.66,207.64c-1.21.43-6.13,2.1-7.84,1.89a.69.69,0,0,1-.55-.41c-.72-1.54,4.79-10.42,7.19-14.16a.46.46,0,0,1,.59-.17l24.52,12.4,6.11-13.3a.45.45,0,0,1,.6-.22.47.47,0,0,1,.23.61L81.2,208a.47.47,0,0,1-.26.24.5.5,0,0,1-.36,0L56,195.8c-3.5,5.5-6.91,11.58-6.91,12.83,1.56.11,5.87-1.35,7.47-1.92a.47.47,0,0,1,.4,0c11.84,7.66,31.45,19,33.67,16.67,3.23-3.3,15.25-30.93,15.37-31.21a.46.46,0,0,1,.84.36c-.5,1.15-12.21,28.06-15.55,31.49A2.06,2.06,0,0,1,89.71,224.59Z" fill="#231f20"/><path d="M145.23,187.71l15.09,47.19s14.94-.23,13.47.83-23.91,5.91-23.91,5.91l-26.57-60.19" fill="#fff"/><path d="M149.88,242.1a.45.45,0,0,1-.42-.27l-26.57-60.19a.45.45,0,0,1,.23-.6.47.47,0,0,1,.61.23l26.41,59.85c8-1.74,19.56-4.39,22.65-5.45a113,113,0,0,0-12.46-.31.45.45,0,0,1-.44-.32l-15.1-47.19a.46.46,0,0,1,.87-.28l15,46.87c13.28-.19,13.56.62,13.67,1a.6.6,0,0,1-.26.68c-1.51,1.08-21.78,5.49-24.09,6Z" fill="#231f20"/><path d="M102,103.7c-6.27,8.4-3.8,23.63-2.52,35.15l38.63-1.93s-4-30.13-8.76-36.8C123.43,96,108.26,95.3,102,103.7Z" fill="#0090ff"/><path d="M138.1,135.09a.46.46,0,0,1-.45-.39c-1.64-10.29-6.74-31.69-6.79-31.9a.45.45,0,0,1,.34-.55.46.46,0,0,1,.55.34c.05.21,5.15,21.64,6.8,32a.45.45,0,0,1-.38.52Z" fill="#231f20"/><path d="M119.8,91.77l1.77,7s.26,4.08-4.29,3.94a9.06,9.06,0,0,1-6.88-3.61l-2.52-12.22a22.13,22.13,0,0,0-.9-6.66c5.14-1.36,8.24-6.27,8.24-6.27s2.44,2.23,3.42,2.88a11,11,0,0,1,2.12,1.72,9.51,9.51,0,0,1,1.77,4.34,30.82,30.82,0,0,1,.77,5.4C123.44,91.73,119.8,91.77,119.8,91.77Z" fill="#fff"/><path d="M117.51,103.15h-.24A9.44,9.44,0,0,1,110,99.33a.33.33,0,0,1-.07-.16S107.45,87,107.44,87a2.64,2.64,0,0,1,0-.67,20.87,20.87,0,0,0-.87-6,.47.47,0,0,1,0-.35.43.43,0,0,1,.28-.21c4.91-1.3,8-6,8-6.07a.47.47,0,0,1,.32-.21.49.49,0,0,1,.37.12s2.42,2.21,3.36,2.83a11.57,11.57,0,0,1,2.21,1.79A9.85,9.85,0,0,1,123,82.78a29.59,29.59,0,0,1,.79,5.47,3.6,3.6,0,0,1-.93,2.73,4.3,4.3,0,0,1-2.46,1.19L122,98.63a4.52,4.52,0,0,1-1.14,3.29A4.46,4.46,0,0,1,117.51,103.15Zm-6.69-4.26a8.69,8.69,0,0,0,6.48,3.34,3.25,3.25,0,0,0,3.81-3.46l-1.76-6.89a.49.49,0,0,1,.08-.39.5.5,0,0,1,.36-.18,3.76,3.76,0,0,0,2.39-1,2.75,2.75,0,0,0,.67-2.06,29.74,29.74,0,0,0-.77-5.31,9.11,9.11,0,0,0-1.66-4.14,10.89,10.89,0,0,0-2-1.64,37.88,37.88,0,0,1-3.09-2.57,16,16,0,0,1-7.77,5.89,20.7,20.7,0,0,1,.79,5.78c0,.21,0,.4,0,.48h0Z" fill="#231f20"/><path d="M120.6,95.21a6.88,6.88,0,0,1-5.09-.61A5,5,0,0,1,113,91.19a14,14,0,0,0,6.78.58Z" fill="#231f20"/><path d="M118.71,95.89a6.41,6.41,0,0,1-3.44-.92,5.44,5.44,0,0,1-2.69-3.74.42.42,0,0,1,.17-.39.44.44,0,0,1,.42-.07,13.49,13.49,0,0,0,6.53.57.44.44,0,0,1,.53.33l.8,3.44a.43.43,0,0,1-.3.52A7.62,7.62,0,0,1,118.71,95.89Zm-5.06-4a5.18,5.18,0,0,0,2.09,2.38,6.29,6.29,0,0,0,4.33.65l-.61-2.6A14.07,14.07,0,0,1,113.65,91.85Z" fill="#231f20"/><path d="M116,86.9h0a.45.45,0,0,1,0-.89h0c.54,0,1.39-.14,1.57-.46a12.19,12.19,0,0,0-2.6-3,.44.44,0,0,1,.59-.66c2.22,2,3.15,3.38,2.78,4.06C117.85,86.84,116.36,86.9,116,86.9Z" fill="#231f20"/><path d="M109.33,82.7a6.75,6.75,0,0,0-1.89-2,2.34,2.34,0,0,0-2.63,0,2.86,2.86,0,0,0-.55,2.89,11.24,11.24,0,0,0,1.44,3.2,4.07,4.07,0,0,0,1.38,1.5,1.59,1.59,0,0,0,1.91-.19" fill="#fff"/><path d="M108,88.94a2.4,2.4,0,0,1-1.11-.28A4.46,4.46,0,0,1,105.31,87a11.53,11.53,0,0,1-1.5-3.33,3.22,3.22,0,0,1,.71-3.35,2.81,2.81,0,0,1,3.16,0,7.23,7.23,0,0,1,2,2.18A.46.46,0,0,1,109,83,6.59,6.59,0,0,0,107.2,81a1.89,1.89,0,0,0-2.09,0c-.78.66-.51,2-.41,2.43a10.87,10.87,0,0,0,1.38,3.06,3.61,3.61,0,0,0,1.22,1.35,1.13,1.13,0,0,0,1.35-.1.47.47,0,0,1,.65,0,.46.46,0,0,1,0,.64A1.77,1.77,0,0,1,108,88.94Z" fill="#231f20"/><path d="M99.17,138.65s-5.92,11.09-21.6,58.45c0,0,51.75,13.5,76.57,6.77L137.86,137Z" fill="#231f20"/><path d="M136.8,206.17c-25.84,0-58.92-8.53-59.34-8.64a.4.4,0,0,1-.27-.22.42.42,0,0,1,0-.35c15.5-46.85,21.56-58.41,21.62-58.52a.41.41,0,0,1,.37-.23l38.69-1.67a.46.46,0,0,1,.45.34l16.28,66.88a.45.45,0,0,1-.32.53A68.62,68.62,0,0,1,136.8,206.17Zm-58.66-9.38c5.14,1.3,52.13,12.81,75.47,6.76l-16.09-66.11-38.08,1.64C98.55,140.86,92.36,153.87,78.14,196.79Z" fill="#231f20"/><path d="M149.21,239.62c0,.11,11.92-3,11.92-3s.72-3,1.71-3.36,13.29.16,13.68,2.05-27.16,9-27.16,9Z" fill="#231f20"/><path d="M149.36,244.8a.45.45,0,0,1-.44-.42l-.15-4.75a.45.45,0,0,1,.37-.45h.09c.66-.09,7.13-1.73,11.54-2.86.25-1,.9-3.06,1.93-3.42s10.85,0,13.48,1.5a1.37,1.37,0,0,1,.77.88c.13.63.32,1.58-13.74,5.72-6.77,2-13.67,3.78-13.74,3.8Zm.3-4.85.12,3.85c12.16-3.16,25.21-7.09,26.27-8.41a1.1,1.1,0,0,0-.28-.22c-2.27-1.33-12-1.71-12.79-1.44-.45.15-1.1,1.7-1.42,3a.43.43,0,0,1-.32.32C153.78,239,150.85,239.77,149.66,240Z" fill="#231f20"/><path d="M58.64,195.81l-6.13,10.7,2.24,2.37s-8.47,6-10.13,4.86,9.73-19.9,9.73-19.9Z" fill="#231f20"/><path d="M45.17,214.31a1.35,1.35,0,0,1-.8-.21c-.91-.63,0-4.7,9.61-20.49a.44.44,0,0,1,.56-.17l4.29,2a.42.42,0,0,1,.23.26.45.45,0,0,1,0,.36l-6,10.41,2,2.14a.44.44,0,0,1,.12.35.44.44,0,0,1-.18.31C53.2,210.53,47.65,214.31,45.17,214.31Zm9.36-19.9c-5.16,8.52-10.12,17.88-9.61,19,.79.54,5.29-1.92,9.16-4.61l-1.89-2a.44.44,0,0,1-.07-.52L58,196Z" fill="#231f20"/><path d="M116.64,89.55c-1.32,0-2.61-.87-3.82-2.57a.44.44,0,0,1,.1-.62.45.45,0,0,1,.62.1c1.07,1.51,2.15,2.26,3.2,2.2,1.57-.08,2.66-1.92,2.67-1.94a.45.45,0,0,1,.61-.16.44.44,0,0,1,.16.6c-.05.09-1.34,2.28-3.4,2.38Z" fill="#231f20"/><path d="M111.36,81.62a.35.35,0,0,1-.2-.05A.44.44,0,0,1,111,81c.08-.14.77-1.41,1.76-1.46a1.58,1.58,0,0,1,1.35.85A.45.45,0,0,1,114,81a.43.43,0,0,1-.61-.13c-.14-.21-.35-.45-.56-.45s-.82.61-1,1A.44.44,0,0,1,111.36,81.62Z" fill="#231f20"/><path d="M116.93,80.63h-.06a.45.45,0,0,1-.38-.5c.08-.53.48-1.54,1.43-1.46a2.74,2.74,0,0,1,1.75,1.18.44.44,0,0,1-.74.49c-.14-.2-.6-.75-1.08-.78s-.48.69-.48.7A.43.43,0,0,1,116.93,80.63Z" fill="#231f20"/><path d="M109.33,118s22.4,13.45,36.27,14.36c12.51-1.33,22.11-18.9,22.11-18.9l-8-6.66S145.59,117,141.19,117.9c-5-.81-26.64-9.57-26.64-9.57" fill="#0090ff"/><path d="M145.6,132.81h-.07A135.09,135.09,0,0,1,112.34,122a.45.45,0,1,1,.39-.82,134,134,0,0,0,32.94,10.72.45.45,0,0,1,.38.52A.46.46,0,0,1,145.6,132.81Z" fill="#231f20"/><path d="M139.15,118.36a.4.4,0,0,1-.15,0c-.78-.27-19.29-6.69-26.74-12.38a.46.46,0,0,1,.55-.73c7.33,5.6,26.3,12.18,26.49,12.25a.46.46,0,0,1-.15.89Z" fill="#231f20"/></g></svg>