<?xml version="1.0" standalone="no"?><svg xmlns="http://www.w3.org/2000/svg" viewBox="0 0 1440 320"><path fill="#31E197" fill-opacity="1" d="M0,96L24,106.7C48,117,96,139,144,154.7C192,171,240,181,288,186.7C336,192,384,192,432,181.3C480,171,528,149,576,138.7C624,128,672,128,720,128C768,128,816,128,864,106.7C912,85,960,43,1008,32C1056,21,1104,43,1152,85.3C1200,128,1248,192,1296,218.7C1344,245,1392,235,1416,229.3L1440,224L1440,320L1416,320C1392,320,1344,320,1296,320C1248,320,1200,320,1152,320C1104,320,1056,320,1008,320C960,320,912,320,864,320C816,320,768,320,720,320C672,320,624,320,576,320C528,320,480,320,432,320C384,320,336,320,288,320C240,320,192,320,144,320C96,320,48,320,24,320L0,320Z"></path></svg>