<?xml version="1.0" standalone="no"?><svg xmlns="http://www.w3.org/2000/svg" viewBox="0 0 1440 320"><path fill="#ffffff" fill-opacity="1" d="M0,96L12.6,128C25.3,160,51,224,76,218.7C101.1,213,126,139,152,117.3C176.8,96,202,128,227,170.7C252.6,213,278,267,303,277.3C328.4,288,354,256,379,224C404.2,192,429,160,455,154.7C480,149,505,171,531,202.7C555.8,235,581,277,606,250.7C631.6,224,657,128,682,85.3C707.4,43,733,53,758,74.7C783.2,96,808,128,834,154.7C858.9,181,884,203,909,224C934.7,245,960,267,985,245.3C1010.5,224,1036,160,1061,160C1086.3,160,1112,224,1137,229.3C1162.1,235,1187,181,1213,154.7C1237.9,128,1263,128,1288,138.7C1313.7,149,1339,171,1364,165.3C1389.5,160,1415,128,1427,112L1440,96L1440,320L1427.4,320C1414.7,320,1389,320,1364,320C1338.9,320,1314,320,1288,320C1263.2,320,1238,320,1213,320C1187.4,320,1162,320,1137,320C1111.6,320,1086,320,1061,320C1035.8,320,1011,320,985,320C960,320,935,320,909,320C884.2,320,859,320,834,320C808.4,320,783,320,758,320C732.6,320,707,320,682,320C656.8,320,632,320,606,320C581.1,320,556,320,531,320C505.3,320,480,320,455,320C429.5,320,404,320,379,320C353.7,320,328,320,303,320C277.9,320,253,320,227,320C202.1,320,177,320,152,320C126.3,320,101,320,76,320C50.5,320,25,320,13,320L0,320Z"></path></svg>